<svg width="64" height="64" viewBox="0 0 64 64" fill="none" xmlns="http://www.w3.org/2000/svg">
<rect x="0.5" y="0.5" width="63" height="63" rx="12.5" fill="white"/>
<rect x="0.5" y="0.5" width="63" height="63" rx="12.5" stroke="#DCE0E5"/>

<!-- Top face (Yellow) -->
<path d="M 32 18 L 48 27 L 32 36 L 16 27 Z" fill="#FDB421"/>

<!-- Left face (Blue) -->
<path d="M 16 27 L 32 36 L 32 52 L 16 43 Z" fill="#0070F2"/>

<!-- Right face (Orange) -->
<path d="M 32 36 L 48 27 L 48 43 L 32 52 Z" fill="#FC5B1C"/>

<!-- Asset Label on left face -->
<path d="M 20 33 L 26 36.3 L 26 44.3 L 20 41 Z" fill="white"/>
<path d="M 22 36 L 24 37" stroke="#0070F2" stroke-width="1.5" stroke-linecap="round"/>
<path d="M 22 38.5 L 24 39.6" stroke="#0070F2" stroke-width="1.5" stroke-linecap="round"/>
<path d="M 22 41 L 24 42.1" stroke="#0070F2" stroke-width="1.5" stroke-linecap="round"/>

<!-- Asset Barcode on right face -->
<path d="M 36 36 L 36 48" stroke="white" stroke-width="1.5" stroke-linecap="round"/>
<path d="M 39 34.5 L 39 46.5" stroke="white" stroke-width="3" stroke-linecap="round"/>
<path d="M 43 32.5 L 43 44.5" stroke="white" stroke-width="1.5" stroke-linecap="round"/>
<path d="M 45 31.5 L 45 42" stroke="white" stroke-width="1.5" stroke-linecap="round"/>

</svg>
